<?xml version="1.0" encoding="UTF-8" standalone="no"?>
<!-- Created with Inkscape (http://www.inkscape.org/) -->

<svg
   width="100mm"
   height="60mm"
   viewBox="0 0 100 60"
   version="1.1"
   id="svg1"
   inkscape:export-filename="sine.svg"
   inkscape:export-xdpi="96"
   inkscape:export-ydpi="96"
   xmlns:inkscape="http://www.inkscape.org/namespaces/inkscape"
   xmlns:sodipodi="http://sodipodi.sourceforge.net/DTD/sodipodi-0.dtd"
   xmlns="http://www.w3.org/2000/svg"
   xmlns:svg="http://www.w3.org/2000/svg">
  <sodipodi:namedview
     id="namedview1"
     pagecolor="#505050"
     bordercolor="#ffffff"
     borderopacity="1"
     inkscape:showpageshadow="0"
     inkscape:pageopacity="0"
     inkscape:pagecheckerboard="1"
     inkscape:deskcolor="#505050"
     inkscape:document-units="mm"
     inkscape:zoom="1.2757665"
     inkscape:cx="144.61894"
     inkscape:cy="129.33401"
     inkscape:window-width="1245"
     inkscape:window-height="1000"
     inkscape:window-x="1083"
     inkscape:window-y="490"
     inkscape:window-maximized="0"
     inkscape:current-layer="layer1" />
  <defs
     id="defs1" />
  <g
     inkscape:label="Layer 1"
     inkscape:groupmode="layer"
     id="layer1">
    <path
       style="fill:none;fill-opacity:1;stroke:#000000;stroke-width:0.986932;stroke-linecap:butt;stroke-linejoin:bevel;stroke-dasharray:none;stroke-opacity:1;paint-order:normal"
       d="M -0.506534,59.5065 C -0.374491,59.36 -0.242448,59.2134 -0.110404,59.0668 0.0216389,58.9203 0.153682,58.7737 0.285725,58.6271 0.417769,58.4806 0.549812,58.334 0.681855,58.1874 0.813898,58.0409 0.945941,57.8943 1.07798,57.7477 1.21003,57.6011 1.34207,57.4546 1.47411,57.308 1.60616,57.1614 1.7382,57.0149 1.87024,56.8683 2.00229,56.7217 2.13433,56.5752 2.26637,56.4286 2.39842,56.282 2.53046,56.1355 2.6625,55.9889 2.79455,55.8423 2.92659,55.6958 3.05863,55.5492 3.19068,55.4026 3.32272,55.2561 3.45476,55.1095 3.58681,54.9629 3.71885,54.8163 3.85089,54.6698 3.98294,54.5232 4.11498,54.3766 4.24702,54.2301 4.37907,54.0835 4.51111,53.9369 4.64315,53.7904 4.7752,53.6438 4.90724,53.4972 5.03928,53.3507 5.17132,53.2041 5.30337,53.0575 5.43541,52.911 5.56745,52.7644 5.6995,52.6178 5.83154,52.4713 5.96358,52.3247 6.09563,52.1781 6.22767,52.0315 6.35971,51.885 6.49176,51.7384 6.6238,51.5918 6.75584,51.4453 6.88789,51.2987 7.01993,51.1521 7.15197,51.0056 7.28402,50.859 7.41606,50.7124 7.5481,50.5659 7.68015,50.4193 7.81219,50.2727 7.94423,50.1262 8.07628,49.9796 8.20832,49.833 8.34036,49.6865 8.47241,49.5399 8.60445,49.3933 8.73649,49.2467 8.86854,49.1002 9.00058,48.9536 9.13262,48.807 9.26466,48.6605 9.39671,48.5139 9.52875,48.3673 9.66079,48.2208 9.79284,48.0742 9.92488,47.9276 10.0569,47.7811 10.189,47.6345 c 0.132,-0.1466 0.2641,-0.2931 0.3961,-0.4397 0.132,-0.1466 0.2641,-0.2931 0.3961,-0.4397 0.1321,-0.1466 0.2641,-0.2932 0.3962,-0.4397 0.132,-0.1466 0.264,-0.2932 0.3961,-0.4397 0.132,-0.1466 0.2641,-0.2932 0.3961,-0.4397 0.1321,-0.1466 0.2641,-0.2932 0.3961,-0.4397 0.1321,-0.1466 0.2641,-0.2932 0.3962,-0.4397 0.132,-0.1466 0.2641,-0.2932 0.3961,-0.4397 0.132,-0.1466 0.2641,-0.2932 0.3961,-0.4398 0.1321,-0.1465 0.2641,-0.2931 0.3962,-0.4397 0.132,-0.1465 0.2641,-0.2931 0.3961,-0.4397 0.132,-0.1465 0.2641,-0.2931 0.3961,-0.4397 0.1321,-0.1465 0.2641,-0.2931 0.3962,-0.4397 0.132,-0.1465 0.264,-0.2931 0.3961,-0.4397 0.132,-0.1465 0.2641,-0.2931 0.3961,-0.4397 0.1321,-0.1466 0.2641,-0.2931 0.3961,-0.4397 0.1321,-0.1466 0.2641,-0.2931 0.3962,-0.4397 0.132,-0.1466 0.2641,-0.2931 0.3961,-0.4397 0.132,-0.1466 0.2641,-0.2931 0.3961,-0.4397 0.1321,-0.1466 0.2641,-0.2931 0.3962,-0.4397 0.132,-0.1466 0.264,-0.2931 0.3961,-0.4397 0.132,-0.1466 0.2641,-0.2932 0.3961,-0.4397 0.1321,-0.1466 0.2641,-0.2932 0.3962,-0.4397 0.132,-0.1466 0.264,-0.2932 0.3961,-0.4397 0.132,-0.1466 0.2641,-0.2932 0.3961,-0.4397 0.1321,-0.1466 0.2641,-0.2932 0.3961,-0.4397 0.1321,-0.1466 0.2641,-0.2932 0.3962,-0.4397 0.132,-0.1466 0.2641,-0.2932 0.3961,-0.4398 0.132,-0.1465 0.2641,-0.2931 0.3961,-0.4397 0.1321,-0.1465 0.2641,-0.2931 0.3962,-0.4397 0.132,-0.1465 0.264,-0.2931 0.3961,-0.4397 0.132,-0.1465 0.2641,-0.2931 0.3961,-0.4397 0.1321,-0.1465 0.2641,-0.2931 0.3961,-0.4397 0.1321,-0.1465 0.2641,-0.2931 0.3962,-0.4397 0.132,-0.1466 0.2641,-0.2931 0.3961,-0.4397 0.132,-0.1466 0.2641,-0.2931 0.3961,-0.4397 0.1321,-0.1466 0.2641,-0.2931 0.3962,-0.4397 0.132,-0.1466 0.2641,-0.2931 0.3961,-0.4397 0.132,-0.1466 0.2641,-0.2931 0.3961,-0.4397 0.1321,-0.1466 0.2641,-0.2931 0.3962,-0.4397 0.132,-0.1466 0.264,-0.2932 0.3961,-0.4397 0.132,-0.1466 0.2641,-0.2932 0.3961,-0.4397 0.1321,-0.1466 0.2641,-0.2932 0.3961,-0.4397 0.1321,-0.1466 0.2641,-0.2932 0.3962,-0.4397 0.132,-0.1466 0.2641,-0.2932 0.3961,-0.4397 0.132,-0.1466 0.2641,-0.2932 0.3961,-0.4397 0.1321,-0.1466 0.2641,-0.2932 0.3962,-0.4398 0.132,-0.1465 0.264,-0.2931 0.3961,-0.4397 0.132,-0.1465 0.2641,-0.2931 0.3961,-0.4397 0.1321,-0.1465 0.2641,-0.2931 0.3962,-0.4397 0.132,-0.1465 0.264,-0.2931 0.3961,-0.4397 0.132,-0.1465 0.2641,-0.2931 0.3961,-0.4397 0.1321,-0.1465 0.2641,-0.2931 0.3961,-0.4397 0.1321,-0.1466 0.2641,-0.2931 0.3962,-0.4397 0.132,-0.1466 0.2641,-0.2931 0.3961,-0.4397 0.132,-0.1466 0.2641,-0.2931 0.3961,-0.4397 0.1321,-0.1466 0.2641,-0.2931 0.3962,-0.4397 0.132,-0.1466 0.264,-0.2931 0.3961,-0.4397 0.132,-0.1466 0.2641,-0.2931 0.3961,-0.4397 0.1321,-0.1466 0.2641,-0.2932 0.3961,-0.4397 0.1321,-0.1466 0.2641,-0.2932 0.3962,-0.4397 0.132,-0.1466 0.2641,-0.2932 0.3961,-0.4397 0.1321,-0.1466 0.2641,-0.2932 0.3961,-0.4397 0.1321,-0.1466 0.2641,-0.2932 0.3962,-0.4397 0.132,-0.1466 0.2641,-0.2932 0.3961,-0.4397 0.132,-0.1466 0.2641,-0.2932 0.3961,-0.4398 0.1321,-0.1465 0.2641,-0.2931 0.3962,-0.4397 0.132,-0.1465 0.264,-0.2931 0.3961,-0.4397 0.132,-0.1465 0.2641,-0.2931 0.3961,-0.4397 0.1321,-0.1465 0.2641,-0.2931 0.3961,-0.4397 0.1321,-0.1465 0.2641,-0.2931 0.3962,-0.4397 0.132,-0.1465 0.2641,-0.2931 0.3961,-0.4397 0.132,-0.1466 0.2641,-0.2931 0.3961,-0.4397 0.1321,-0.1466 0.2641,-0.2931 0.3962,-0.4397 0.132,-0.1466 0.2641,-0.2931 0.3961,-0.4397 0.132,-0.1466 0.2641,-0.2931 0.3961,-0.4397 0.1321,-0.1466 0.2641,-0.2931 0.3962,-0.4397 0.132,-0.1466 0.264,-0.2931 0.3961,-0.4397 0.132,-0.1466 0.2641,-0.2931 0.3961,-0.4397 0.1321,-0.1466 0.2641,-0.2932 0.3961,-0.4397 0.1321,-0.1466 0.2641,-0.2932 0.3962,-0.4397 0.132,-0.1466 0.2641,-0.2932 0.3961,-0.4397 0.132,-0.1466 0.2641,-0.2932 0.3961,-0.4397 0.1321,-0.1466 0.2641,-0.2932 0.3962,-0.4397 0.132,-0.1466 0.264,-0.2932 0.3961,-0.4397 0.132,-0.1466 0.2641,-0.29319 0.3961,-0.43975 0.1321,-0.14657 0.2641,-0.29314 0.3962,-0.43971 0.132,-0.14657 0.264,-0.29314 0.3961,-0.43971 0.132,-0.14656 0.2641,-0.29313 0.3961,-0.4397 0.1321,-0.14657 0.2641,-0.29314 0.3961,-0.43971 0.1321,-0.14656 0.2641,-0.29313 0.3962,-0.4397 0.132,-0.14657 0.2641,-0.29314 0.3961,-0.43971 0.132,-0.14656 0.2641,-0.29313 0.3961,-0.4397 0.1321,-0.14657 0.2641,-0.29314 0.3962,-0.43971 0.132,-0.14657 0.264,-0.29313 0.3961,-0.4397 0.132,-0.14657 0.2641,-0.29314 0.3961,-0.43971 0.1321,-0.14657 0.2641,-0.29313 0.3961,-0.4397 0.1321,-0.14657 0.2641,-0.29314 0.3962,-0.43971 0.132,-0.14657 0.2641,-0.29313 0.3961,-0.4397 0.132,-0.14657 0.2641,-0.29314 0.3961,-0.43971 0.1321,-0.14657 0.2641,-0.29313 0.3962,-0.4397 0.132,-0.14657 0.2641,-0.29314 0.3961,-0.43971 0.132,-0.14657 0.2641,-0.29314 0.3961,-0.4397 0.1321,-0.14657 0.2641,-0.29314 0.3962,-0.43971 0.132,-0.14657 0.264,-0.29314 0.3961,-0.4397 0.132,-0.14657 0.2641,-0.29314 0.3961,-0.43971 0.1321,-0.146568 0.2641,-0.293136 0.3961,-0.439705 0.1321,-0.146568 0.2641,58.719965 0.3962,58.573365 0.132,-0.1466 0.2641,-0.2931 0.3961,-0.4397 0.132,-0.1466 0.2641,-0.2931 0.3961,-0.4397 0.1321,-0.1466 0.2641,-0.2931 0.3962,-0.4397 0.132,-0.1466 0.264,-0.2932 0.3961,-0.4397 0.132,-0.1466 0.2641,-0.2932 0.3961,-0.4397 0.1321,-0.1466 0.2641,-0.2932 0.3962,-0.4397 0.132,-0.1466 0.264,-0.2932 0.3961,-0.4397 0.132,-0.1466 0.2641,-0.2932 0.3961,-0.4397 0.1321,-0.1466 0.2641,-0.2932 0.3961,-0.4397 0.1321,-0.1466 0.2641,-0.2932 0.3962,-0.4398 0.132,-0.1465 0.2641,-0.2931 0.3961,-0.4397 0.132,-0.1465 0.2641,-0.2931 0.3961,-0.4397 0.1321,-0.1465 0.2641,-0.2931 0.3962,-0.4397 0.132,-0.1465 0.264,-0.2931 0.3961,-0.4397 0.132,-0.1465 0.2641,-0.2931 0.3961,-0.4397 0.1321,-0.1465 0.2641,-0.2931 0.3961,-0.4397 0.1321,-0.1466 0.2641,-0.2931 0.3962,-0.4397 0.132,-0.1466 0.2641,-0.2931 0.3961,-0.4397 0.1321,-0.1466 0.2641,-0.2931 0.3961,-0.4397 0.1321,-0.1466 0.2641,-0.2931 0.3962,-0.4397 0.132,-0.1466 0.2641,-0.2931 0.3961,-0.4397 0.132,-0.1466 0.2641,-0.2931 0.3961,-0.4397 0.1321,-0.1466 0.2641,-0.2932 0.3962,-0.4397 0.132,-0.1466 0.264,-0.2932 0.3961,-0.4397 0.132,-0.1466 0.2641,-0.2932 0.3961,-0.4397 0.1321,-0.1466 0.2641,-0.2932 0.3961,-0.4397 0.1321,-0.1466 0.2641,-0.2932 0.3962,-0.4397 0.132,-0.1466 0.2641,-0.2932 0.3961,-0.4397 0.132,-0.1466 0.2641,-0.2932 0.3961,-0.4398 0.1321,-0.1465 0.2641,-0.2931 0.3962,-0.4397 0.132,-0.1465 0.2641,-0.2931 0.3961,-0.4397 0.132,-0.1465 0.2641,-0.2931 0.3961,-0.4397 0.1321,-0.1465 0.2641,-0.2931 0.3962,-0.4397 0.132,-0.1465 0.264,-0.2931 0.3961,-0.4397 0.132,-0.1465 0.2641,-0.2931 0.3961,-0.4397 0.1321,-0.1466 0.2641,-0.2931 0.3961,-0.4397 0.1321,-0.1466 0.2641,-0.2931 0.3962,-0.4397 0.132,-0.1466 0.2641,-0.2931 0.3961,-0.4397 0.132,-0.1466 0.2641,-0.2931 0.3961,-0.4397 0.1321,-0.1466 0.2641,-0.2931 0.3962,-0.4397 0.132,-0.1466 0.264,-0.2931 0.3961,-0.4397 0.132,-0.1466 0.2641,-0.2932 0.3961,-0.4397 0.1321,-0.1466 0.2641,-0.2932 0.3962,-0.4397 0.132,-0.1466 0.264,-0.2932 0.3961,-0.4397 0.132,-0.1466 0.2641,-0.2932 0.3961,-0.4397 0.1321,-0.1466 0.2641,-0.2932 0.3961,-0.4397 0.1321,-0.1466 0.2641,-0.2932 0.3962,-0.4397 0.132,-0.1466 0.2641,-0.2932 0.3961,-0.4398 0.132,-0.1465 0.2641,-0.2931 0.3961,-0.4397 0.1321,-0.1465 0.2641,-0.2931 0.3962,-0.4397 0.132,-0.1465 0.264,-0.2931 0.3961,-0.4397 0.132,-0.1465 0.2641,-0.2931 0.3961,-0.4397 0.1321,-0.1465 0.2641,-0.2931 0.3961,-0.4397 0.1321,-0.1465 0.2641,-0.2931 0.3962,-0.4397 0.132,-0.1466 0.2641,-0.2931 0.3961,-0.4397 0.132,-0.1466 0.2641,-0.2931 0.3961,-0.4397 0.1321,-0.1466 0.2641,-0.2931 0.3962,-0.4397 0.132,-0.1466 0.2641,-0.2931 0.3961,-0.4397 0.132,-0.1466 0.2641,-0.2931 0.3961,-0.4397 0.1321,-0.1466 0.2641,-0.2931 0.3962,-0.4397 0.132,-0.1466 0.264,-0.2932 0.3961,-0.4397 0.132,-0.1466 0.2641,-0.2932 0.3961,-0.4397 0.1321,-0.1466 0.2641,-0.2932 0.3961,-0.4397 0.1321,-0.1466 0.2641,-0.2932 0.3962,-0.4397 0.132,-0.1466 0.2641,-0.2932 0.3961,-0.4397 0.132,-0.1466 0.2641,-0.2932 0.3961,-0.4397 0.1321,-0.1466 0.2641,-0.2932 0.3962,-0.4398 0.132,-0.1465 0.264,-0.2931 0.3961,-0.4397 0.132,-0.1465 0.2641,-0.2931 0.3961,-0.4397 0.1321,-0.1465 0.2641,-0.2931 0.3962,-0.4397 0.132,-0.1465 0.264,-0.2931 0.3961,-0.4397 0.132,-0.1465 0.2641,-0.2931 0.3961,-0.4397 0.1321,-0.1465 0.2641,-0.2931 0.3961,-0.4397 0.1321,-0.1466 0.2641,-0.2931 0.3962,-0.4397 0.132,-0.1466 0.2641,-0.2931 0.3961,-0.4397 0.132,-0.1466 0.2641,-0.2931 0.3961,-0.4397 0.1321,-0.1466 0.2641,-0.2931 0.3962,-0.4397 0.132,-0.1466 0.264,-0.2931 0.3961,-0.4397 0.132,-0.1466 0.2641,-0.2931 0.3961,-0.4397 0.1321,-0.1466 0.2641,-0.2931 0.3961,-0.4397 0.1321,-0.1466 0.2641,-0.2932 0.3962,-0.4397 0.132,-0.1466 0.2641,-0.2932 0.3961,-0.4397 0.1321,-0.1466 0.2641,-0.2932 0.3961,-0.4397 0.1321,-0.1466 0.2641,-0.2932 0.3962,-0.4397 0.132,-0.1466 0.2641,-0.2932 0.3961,-0.4397 0.132,-0.1466 0.2641,-0.2932 0.3961,-0.4397 0.1321,-0.1466 0.2641,-0.2932 0.3962,-0.4398 0.132,-0.1465 0.264,-0.2931 0.3961,-0.4397 0.132,-0.1465 0.2641,-0.2931 0.3961,-0.4397 0.1321,-0.1465 0.2641,-0.2931 0.3961,-0.4397 0.1321,-0.1465 0.2641,-0.2931 0.3962,-0.4397 0.132,-0.1465 0.2641,-0.2931 0.3961,-0.4397 0.132,-0.1465 0.2641,-0.2931 0.3961,-0.4397 0.1321,-0.1466 0.2641,-0.2931 0.3962,-0.4397 0.132,-0.1466 0.2641,-0.2931 0.3961,-0.4397 0.132,-0.1466 0.2641,-0.2931 0.3961,-0.4397 0.1321,-0.1466 0.2641,-0.2931 0.3962,-0.4397 0.132,-0.1466 0.264,-0.2931 0.3961,-0.4397 0.132,-0.1466 0.2641,-0.2931 0.3961,-0.4397 0.1321,-0.1466 0.2641,-0.2932 0.3961,-0.4397 0.1321,-0.1466 0.2641,-0.2932 0.3962,-0.4397 0.132,-0.1466 0.2641,-0.2932 0.3961,-0.4397 0.132,-0.1466 0.2641,-0.2932 0.3961,-0.4397 0.1321,-0.1466 0.2641,-0.2932 0.3962,-0.4397 0.132,-0.1466 0.264,-0.2932 0.3961,-0.4397 0.132,-0.1466 0.2641,-0.2932 0.3961,-0.4398 0.1321,-0.1465 0.2641,-0.2931 0.3962,-0.4397 0.132,-0.1465 0.264,-0.2931 0.3961,-0.4397 0.132,-0.1465 0.2641,-0.2931 0.3961,-0.4397 0.1321,-0.1465 0.2641,-0.2931 0.3961,-0.4397 0.1321,-0.1465 0.2641,-0.2931 0.3962,-0.4397 0.132,-0.1465 0.2641,-0.2931 0.3961,-0.43969 0.132,-0.14656 0.2641,-0.29313 0.3961,-0.4397 0.1321,-0.14657 0.2641,-0.29314 0.3962,-0.43971 0.132,-0.14656 0.264,-0.29313 0.3961,-0.4397 0.132,-0.14657 0.2641,-0.29314 0.3961,-0.43971 0.1321,-0.14656 0.2641,-0.29313 0.3961,-0.4397 0.1321,-0.14657 0.2641,-0.29314 0.3962,-0.43971 0.132,-0.14657 0.2641,-0.29313 0.3957,-0.4397 0.132,-0.14657 0.264,-0.29314 0.397,-0.43971"
       title="x-floor(x)"
       id="path4" />
  </g>
</svg>
