<?xml version="1.0" encoding="UTF-8" standalone="no"?>
<!-- Created with Inkscape (http://www.inkscape.org/) -->

<svg
   width="100mm"
   height="60mm"
   viewBox="0 0 100 60"
   version="1.1"
   id="svg1"
   inkscape:export-filename="sine.svg"
   inkscape:export-xdpi="96"
   inkscape:export-ydpi="96"
   xmlns:inkscape="http://www.inkscape.org/namespaces/inkscape"
   xmlns:sodipodi="http://sodipodi.sourceforge.net/DTD/sodipodi-0.dtd"
   xmlns="http://www.w3.org/2000/svg"
   xmlns:svg="http://www.w3.org/2000/svg">
  <sodipodi:namedview
     id="namedview1"
     pagecolor="#505050"
     bordercolor="#ffffff"
     borderopacity="1"
     inkscape:showpageshadow="0"
     inkscape:pageopacity="0"
     inkscape:pagecheckerboard="1"
     inkscape:deskcolor="#505050"
     inkscape:document-units="mm"
     inkscape:zoom="1.2757665"
     inkscape:cx="140.3078"
     inkscape:cy="166.95845"
     inkscape:window-width="1046"
     inkscape:window-height="1000"
     inkscape:window-x="1083"
     inkscape:window-y="490"
     inkscape:window-maximized="0"
     inkscape:current-layer="layer1" />
  <defs
     id="defs1" />
  <g
     inkscape:label="Layer 1"
     inkscape:groupmode="layer"
     id="layer1">
    <path
       style="fill:none;fill-opacity:1;stroke:#000000;stroke-width:0.986932;stroke-linecap:butt;stroke-linejoin:bevel;stroke-dasharray:none;stroke-opacity:1;paint-order:normal"
       d="m -0.506534,59.5065 c 0.5344606,0 1.068921,0 1.603384,0 0.53446,0 1.06892,0 1.60338,0 0.53446,0 1.06892,-59.013034 1.60338,-59.013034 0.53446,0 1.06892,0 1.60338,0 0.53446,0 1.06893,0 1.60339,0 0.53446,0 1.06892,0 1.60338,0 0.53446,0 1.06894,0 1.60334,0 0.5345,0 1.069,0 1.6034,0 0.5345,0 1.0689,0 1.6034,0 0.5345,0 1.0689,0 1.6034,0 0.5344,0 1.0689,0 1.6034,0 0.5344,0 1.0689,0 1.6034,0 0.5344,0 1.0689,0 1.6033,0 0.5345,0 1.069,0 1.6034,0 0.5345,0 1.0689,0 1.6034,0 0.5345,0 1.0689,0 1.6034,0 0.5344,0 1.0689,0 1.6034,0 0.5344,0 1.0689,0 1.6033,0 0.5345,0 1.069,0 1.6034,0 0.5345,0 1.0689,0 1.6034,0 0.5345,0 1.0689,0 1.6034,0 0.5344,0 1.0689,0 1.6034,0 0.5344,0 1.0689,0 1.6034,0 0.5344,0 1.0689,0 1.6033,0 0.5345,0 1.069,0 1.6034,0 0.5345,0 1.0689,0 1.6034,0 0.5345,0 1.0689,0 1.6034,0 0.5344,0 1.0689,0 1.6034,0 0.5344,0 1.0689,0 1.6033,0 0.5345,0 1.069,0 1.6034,0 0.5345,0 1.0689,0 1.6034,0 0.5345,0 1.0689,59.013034 1.6034,59.013034 0.5345,0 1.0689,0 1.6034,0 0.5344,0 1.0689,0 1.6034,0 0.5344,0 1.0689,0 1.6033,0 0.5345,0 1.069,0 1.6034,0 0.5345,0 1.0689,0 1.6034,0 0.5345,0 1.0689,0 1.6034,0 0.5344,0 1.0689,0 1.6034,0 0.5344,0 1.0689,0 1.6033,0 0.5345,0 1.069,0 1.6034,0 0.5345,0 1.069,0 1.6034,0 0.5345,0 1.0689,0 1.6034,0 0.5345,0 1.0689,0 1.6034,0 0.5344,0 1.0689,0 1.6034,0 0.5344,0 1.0689,0 1.6033,0 0.5345,0 1.069,0 1.6034,0 0.5345,0 1.0689,0 1.6034,0 0.5345,0 1.0689,0 1.6034,0 0.5344,0 1.0689,0 1.6034,0 0.5344,0 1.0689,0 1.6034,0 0.5344,0 1.0689,0 1.6033,0 0.5345,0 1.069,0 1.6034,0 0.5345,0 1.0689,0 1.6034,0 0.5345,0 1.0689,0 1.6034,0 0.5344,0 1.0689,0 1.6034,0 0.5344,0 1.0689,0 1.6033,0 0.5345,0 1.069,0 1.6034,0 0.5345,0 1.0689,0 1.6034,0 0.5345,0 1.0689,0 1.6034,0 0.5345,0 1.0689,-59.013034 1.6034,-59.013034 0.5344,0 1.0689,0 1.6034,0 0.5344,0 1.0689,0 1.6038,0"
       title="pow(-1, round(x))"
       id="path4" />
  </g>
</svg>
