<?xml version="1.0" encoding="UTF-8" standalone="no"?>
<!-- Created with Inkscape (http://www.inkscape.org/) -->

<svg
   width="100mm"
   height="60mm"
   viewBox="0 0 100 60"
   version="1.1"
   id="svg1"
   inkscape:export-filename="sine.svg"
   inkscape:export-xdpi="96"
   inkscape:export-ydpi="96"
   xmlns:inkscape="http://www.inkscape.org/namespaces/inkscape"
   xmlns:sodipodi="http://sodipodi.sourceforge.net/DTD/sodipodi-0.dtd"
   xmlns="http://www.w3.org/2000/svg"
   xmlns:svg="http://www.w3.org/2000/svg">
  <sodipodi:namedview
     id="namedview1"
     pagecolor="#505050"
     bordercolor="#ffffff"
     borderopacity="1"
     inkscape:showpageshadow="0"
     inkscape:pageopacity="0"
     inkscape:pagecheckerboard="1"
     inkscape:deskcolor="#505050"
     inkscape:document-units="mm"
     inkscape:zoom="1.2757665"
     inkscape:cx="144.61894"
     inkscape:cy="129.33401"
     inkscape:window-width="1225"
     inkscape:window-height="1000"
     inkscape:window-x="1083"
     inkscape:window-y="490"
     inkscape:window-maximized="0"
     inkscape:current-layer="layer1" />
  <defs
     id="defs1" />
  <g
     inkscape:label="Layer 1"
     inkscape:groupmode="layer"
     id="layer1">
    <path
       style="fill:none;fill-opacity:1;stroke:#000000;stroke-width:0.986932;stroke-linecap:butt;stroke-linejoin:bevel;stroke-dasharray:none;stroke-opacity:1;paint-order:normal"
       d="m -0.506534,24.0987 c 0.132043,-0.1389 0.264086,-0.2777 0.39613,-0.4166 C 0.0216389,23.5433 0.153682,23.4044 0.285725,23.2656 0.417769,23.1267 0.549812,22.9879 0.681855,22.849 0.813898,22.7102 0.945941,22.5713 1.07798,22.4324 1.21003,22.2936 1.34207,22.1547 1.47411,22.0159 1.60616,21.877 1.7382,21.7382 1.87024,21.5993 2.00229,21.4605 2.13433,21.3216 2.26637,21.1828 2.39842,21.0439 2.53046,20.905 2.6625,20.7662 2.79455,20.6273 2.92659,20.4885 3.05863,20.3496 3.19068,20.2108 3.32272,20.0719 3.45476,19.9331 3.58681,19.7942 3.71885,19.6554 3.85089,19.5165 3.98294,19.3776 4.11498,19.2388 4.24702,19.0999 4.37907,18.9611 4.51111,18.8222 4.64315,18.6834 4.7752,18.5445 4.90724,18.4057 5.03928,18.2668 5.17132,18.128 5.30337,17.9891 5.43541,17.8503 5.56745,17.7114 5.6995,17.5725 5.83154,17.4337 5.96358,17.2948 6.09563,17.156 6.22767,17.0171 6.35971,16.8783 6.49176,16.7394 6.6238,16.6006 6.75584,16.4617 6.88789,16.3229 7.01993,16.184 7.15197,16.0451 7.28402,15.9063 7.41606,15.7674 7.5481,15.6286 7.68015,15.4897 7.81219,15.3509 7.94423,15.212 8.07628,15.0732 8.20832,14.9343 8.34036,14.7955 8.47241,14.6566 8.60445,14.5177 8.73649,14.3789 8.86854,14.24 9.00058,14.1012 9.13262,13.9623 9.26466,13.8235 9.39671,13.6846 9.52875,13.5458 9.66079,13.4069 9.79284,13.2681 9.92488,13.1292 10.0569,12.9904 10.189,12.8515 c 0.132,-0.1389 0.2641,-0.2777 0.3961,-0.4166 0.132,-0.1388 0.2641,-0.2777 0.3961,-0.4165 0.1321,-0.1389 0.2641,-0.2777 0.3962,-0.4166 0.132,-0.1388 0.264,-0.2777 0.3961,-0.4166 0.132,-0.1388 0.2641,-0.2777 0.3961,-0.4165 0.1321,-0.1389 0.2641,-0.2777 0.3961,-0.4166 0.1321,-0.1388 0.2641,-0.2777 0.3962,-0.41654 0.132,-0.13886 0.2641,-0.27771 0.3961,-0.41657 0.132,-0.13885 0.2641,-0.2777 0.3961,-0.41656 0.1321,-0.13885 0.2641,-0.27771 0.3962,-0.41656 0.132,-0.13886 0.2641,-0.27771 0.3961,-0.41656 0.132,-0.13886 0.2641,-0.27771 0.3961,-0.41657 0.1321,-0.13885 0.2641,-0.27771 0.3962,-0.41656 0.132,-0.13885 0.264,-0.27771 0.3961,-0.41656 0.132,-0.13886 0.2641,-0.27771 0.3961,-0.41657 0.1321,-0.13885 0.2641,-0.2777 0.3961,-0.41656 0.1321,-0.13885 0.2641,-0.27771 0.3962,-0.41656 0.132,-0.13886 0.2641,-0.27771 0.3961,-0.41656 0.132,-0.13886 0.2641,-0.27771 0.3961,-0.41657 0.1321,-0.13885 0.2641,-0.27771 0.3962,-0.41656 0.132,-0.13885 0.264,-0.27771 0.3961,-0.41656 0.132,-0.13886 0.2641,-0.27771 0.3961,-0.41657 0.1321,-0.13885 0.2641,-0.2777 0.3962,-0.41656 0.132,-0.13885 0.264,-0.27771 0.3961,-0.41656 0.132,-0.13886 0.2641,-0.27771 0.3961,-0.41656 0.1321,-0.13886 0.2641,-0.27771 0.3961,-0.41657 0.1321,-0.13885 0.2641,-0.27771 0.3962,-0.41656 0.132,-0.13885 0.2641,-0.27771 0.3961,-0.41656 0.132,-0.13886 0.2641,-0.277711 0.3961,-0.416566 0.1321,-0.138854 0.2641,-0.277708 0.3962,-0.138854 0.132,0.138854 0.264,0.277709 0.3961,0.41656 0.132,0.13886 0.2641,0.27771 0.3961,0.41657 0.1321,0.13885 0.2641,0.2777 0.3961,0.41656 0.1321,0.13885 0.2641,0.27771 0.3962,0.41656 0.132,0.13886 0.2641,0.27771 0.3961,0.41656 0.132,0.13886 0.2641,0.27771 0.3961,0.41657 0.1321,0.13885 0.2641,0.27771 0.3962,0.41656 0.132,0.13885 0.2641,0.27771 0.3961,0.41656 0.132,0.13886 0.2641,0.27771 0.3961,0.41657 0.1321,0.13885 0.2641,0.2777 0.3962,0.41656 0.132,0.13885 0.264,0.27771 0.3961,0.41656 0.132,0.13886 0.2641,0.27771 0.3961,0.41656 0.1321,0.13886 0.2641,0.27771 0.3961,0.41657 0.1321,0.13885 0.2641,0.27771 0.3962,0.41656 0.132,0.13885 0.2641,0.27771 0.3961,0.41656 0.132,0.13886 0.2641,0.27771 0.3961,0.41657 0.1321,0.13885 0.2641,0.2777 0.3962,0.41656 0.132,0.13885 0.264,0.27771 0.3961,0.41656 0.132,0.13886 0.2641,0.27771 0.3961,0.41656 0.1321,0.13886 0.2641,0.27771 0.3962,0.41657 0.132,0.13885 0.264,0.27771 0.3961,0.41656 0.132,0.13885 0.2641,0.27771 0.3961,0.41656 0.1321,0.13886 0.2641,0.2777 0.3961,0.4166 0.1321,0.1388 0.2641,0.2777 0.3962,0.4165 0.132,0.1389 0.2641,0.2777 0.3961,0.4166 0.132,0.1388 0.2641,0.2777 0.3961,0.4166 0.1321,0.1388 0.2641,0.2777 0.3962,0.4165 0.132,0.1389 0.264,0.2777 0.3961,0.4166 0.132,0.1388 0.2641,0.2777 0.3961,0.4165 0.1321,0.1389 0.2641,0.2778 0.3961,0.4166 0.1321,0.1389 0.2641,0.2777 0.3962,0.4166 0.132,0.1388 0.2641,0.2777 0.3961,0.4165 0.1321,0.1389 0.2641,0.2777 0.3961,0.4166 0.1321,0.1388 0.2641,0.2777 0.3962,0.4166 0.132,0.1388 0.2641,0.2777 0.3961,0.4165 0.132,0.1389 0.2641,0.2777 0.3961,0.4166 0.1321,0.1388 0.2641,0.2777 0.3962,0.4165 0.132,0.1389 0.264,0.2778 0.3961,0.4166 0.132,0.1389 0.2641,0.2777 0.3961,0.4166 0.1321,0.1388 0.2641,0.2777 0.3961,0.4165 0.1321,0.1389 0.2641,0.2777 0.3962,0.4166 0.132,0.1389 0.2641,0.2777 0.3961,0.4166 0.132,0.1388 0.2641,0.2777 0.3961,0.4165 0.1321,0.1389 0.2641,0.2777 0.3962,0.4166 0.132,0.1388 0.2641,0.2777 0.3961,0.4165 0.132,0.1389 0.2641,0.2778 0.3961,0.4166 0.1321,0.1389 0.2641,0.2777 0.3962,0.4166 0.132,0.1388 0.264,0.2777 0.3961,0.4165 0.132,0.1389 0.2641,0.2777 0.3961,0.4166 0.1321,0.1389 0.2641,0.2777 0.3961,0.4166 0.1321,0.1388 0.2641,0.2777 0.3962,0.4165 0.132,0.1389 0.2641,0.2777 0.3961,0.4166 0.132,0.1388 0.2641,0.2777 0.3961,0.4166 0.1321,0.1388 0.2641,0.2777 0.3962,0.4165 0.132,0.1389 0.264,0.2777 0.3961,0.4166 0.132,0.1388 0.2641,0.2777 0.3961,0.4165 0.1321,0.1389 0.2641,0.2777 0.3962,0.4166 0.132,0.1389 0.264,0.2777 0.3961,0.4166 0.132,0.1388 0.2641,0.2777 0.3961,0.4165 0.1321,0.1389 0.2641,0.2777 0.3961,0.4166 0.1321,0.1388 0.2641,0.2777 0.3962,0.4166 0.132,0.1388 0.2641,0.2777 0.3961,0.4165 0.132,0.1389 0.2641,0.2777 0.3961,0.4166 0.1321,0.1388 0.2641,0.2777 0.3962,0.4165 0.132,0.1389 0.264,0.2778 0.3961,0.4166 0.132,0.1389 0.2641,0.2777 0.3961,0.4166 0.1321,0.1388 0.2641,0.2777 0.3961,0.4165 0.1321,0.1389 0.2641,0.2777 0.3962,0.4166 0.132,0.1388 0.2641,0.2777 0.3961,0.4166 0.132,0.1388 0.2641,0.2777 0.3961,0.4165 0.1321,0.1389 0.2641,0.2777 0.3962,0.4166 0.132,0.1388 0.2641,0.2777 0.3961,0.4165 0.132,0.1389 0.2641,0.2778 0.3961,0.4166 0.1321,0.1389 0.2641,0.2777 0.3962,0.4166 0.132,0.1388 0.264,0.2777 0.3961,0.4165 0.132,0.1389 0.2641,0.2777 0.3961,0.4166 0.1321,0.1389 0.2641,0.2777 0.3961,0.4166 0.1321,0.1388 0.2641,0.2777 0.3962,0.4165 0.132,0.1389 0.2641,0.2777 0.3961,0.4166 0.132,0.1388 0.2641,0.2777 0.3961,0.4165 0.1321,0.1389 0.2641,0.2778 0.3962,0.4166 0.132,0.1389 0.264,0.2777 0.3961,0.4166 0.132,0.1388 0.2641,0.2777 0.3961,0.4165 0.1321,0.1389 0.2641,0.2777 0.3962,0.4166 0.132,0.1389 0.264,0.2777 0.3961,0.4166 0.132,0.1388 0.2641,0.2777 0.3961,0.4165 0.1321,0.1389 0.2641,0.2777 0.3961,0.4166 0.1321,0.1388 0.2641,0.2777 0.3962,0.4166 0.132,0.1388 0.2641,0.2777 0.3961,0.4165 0.132,0.1389 0.2641,0.2777 0.3961,0.4166 0.1321,0.1388 0.2641,0.2777 0.3962,0.4165 0.132,0.1389 0.264,0.2777 0.3961,0.4166 0.132,0.1389 0.2641,0.2777 0.3961,0.4166 0.1321,0.1388 0.2641,0.2777 0.3961,0.4165 0.1321,0.1389 0.2641,0.2777 0.3962,0.4166 0.132,0.1388 0.2641,0.2777 0.3961,0.4166 0.1321,0.1388 0.2641,0.2777 0.3961,0.4165 0.1321,0.1389 0.2641,0.2777 0.3962,0.4166 0.132,0.1388 0.2641,0.2777 0.3961,0.4165 0.132,0.1389 0.2641,0.2777 0.3961,0.4166 0.1321,0.1389 0.2641,0.2777 0.3962,0.4166 0.132,0.1388 0.264,0.2777 0.3961,0.4165 0.132,0.1389 0.2641,0.2777 0.3961,0.4166 0.1321,0.1388 0.2641,0.2777 0.3961,0.4166 0.1321,0.1388 0.2641,0.2777 0.3962,0.4165 0.132,0.1389 0.2641,0.2777 0.3961,0.4166 0.132,0.1388 0.2641,0.2777 0.3961,0.4165 0.1321,0.1389 0.2641,0.2778 0.3962,0.4166 0.132,0.1389 0.2641,0.2777 0.3961,0.4166 0.132,0.1388 0.2641,0.2777 0.3961,0.4165 0.1321,0.1389 0.2641,0.2777 0.3962,0.4166 0.132,0.1388 0.264,0.2777 0.3961,0.4166 0.132,0.1388 0.2641,0.2777 0.3961,0.4165 0.1321,0.1389 0.2641,0.2777 0.3961,0.4166 0.1321,0.1388 0.2641,0.2777 0.3962,0.4165 0.132,0.1389 0.2641,0.2778 0.3961,0.4166 0.132,0.1389 0.2641,0.2777 0.3961,0.4166 0.1321,0.1388 0.2641,0.2777 0.3962,0.4165 0.132,0.1389 0.264,0.2777 0.3961,0.4166 0.132,0.1389 0.2641,0.2777 0.3961,0.4166 0.1321,0.1388 0.2641,0.2777 0.3962,0.4165 0.132,0.1389 0.264,0.2777 0.3961,0.4166 0.132,0.1388 0.2641,0.2777 0.3961,0.4165 0.1321,0.1389 0.2641,0.2778 0.3961,0.4166 0.1321,0.1389 0.2641,0.2777 0.3962,0.4166 0.132,0.1388 0.2641,0.2777 0.3961,0.4165 0.132,0.1389 0.2641,0.2777 0.3961,0.4166 0.1321,0.1389 0.2641,0.2777 0.3962,0.4166 0.132,0.1388 0.264,0.2777 0.3961,0.4165 0.132,0.1389 0.2641,0.2777 0.3961,0.4166 0.1321,0.1388 0.2641,0.2777 0.3961,0.4166 0.1321,0.1388 0.2641,0.2777 0.3962,0.4165 0.132,0.1389 0.2641,0.2777 0.3961,0.4166 0.132,0.1388 0.2641,0.2777 0.3961,0.4165 0.1321,0.1389 0.2641,0.2777 0.3962,0.4166 0.132,0.1389 0.2641,0.2777 0.3961,0.4166 0.132,0.1388 0.2641,0.2777 0.3961,0.4165 0.1321,0.1389 0.2641,0.2777 0.3962,0.4166 0.132,0.1388 0.264,0.2777 0.3961,0.4166 0.132,0.1388 0.2641,0.2777 0.3961,0.4165 0.1321,0.1389 0.2641,0.2777 0.3961,0.4166 0.1321,0.1388 0.2641,0 0.3962,-0.1389 0.132,-0.1388 0.2641,-0.2777 0.3961,-0.4165 0.132,-0.1389 0.2641,-0.2777 0.3961,-0.4166 0.1321,-0.1389 0.2641,-0.2777 0.3962,-0.4166 0.132,-0.1388 0.264,-0.2777 0.3961,-0.4165 0.132,-0.1389 0.2641,-0.2777 0.3961,-0.4166 0.1321,-0.1388 0.2641,-0.2777 0.3962,-0.4166 0.132,-0.1388 0.264,-0.2777 0.3961,-0.4165 0.132,-0.1389 0.2641,-0.2777 0.3961,-0.4166 0.1321,-0.1388 0.2641,-0.2777 0.3961,-0.4165 0.1321,-0.1389 0.2641,-0.2777 0.3962,-0.4166 0.132,-0.1389 0.2641,-0.2777 0.3961,-0.4166 0.132,-0.1388 0.2641,-0.2777 0.3961,-0.4165 0.1321,-0.1389 0.2641,-0.2777 0.3962,-0.4166 0.132,-0.1388 0.264,-0.2777 0.3961,-0.4166 0.132,-0.1388 0.2641,-0.2777 0.3961,-0.4165 0.1321,-0.1389 0.2641,-0.2777 0.3961,-0.4166 0.1321,-0.1388 0.2641,-0.2777 0.3962,-0.4165 0.132,-0.1389 0.2641,-0.2778 0.3961,-0.4166 0.1321,-0.1389 0.2641,-0.2777 0.3961,-0.4166 0.1321,-0.1388 0.2641,-0.2777 0.3962,-0.4165 0.132,-0.1389 0.2641,-0.2777 0.3961,-0.4166 0.132,-0.1388 0.2641,-0.2777 0.3961,-0.4166 0.1321,-0.1388 0.2641,-0.2777 0.3962,-0.4165 0.132,-0.1389 0.264,-0.2777 0.3961,-0.4166 0.132,-0.1388 0.2641,-0.2777 0.3961,-0.4165 0.1321,-0.1389 0.2641,-0.2778 0.3961,-0.4166 0.1321,-0.1389 0.2641,-0.2777 0.3962,-0.4166 0.132,-0.1388 0.2641,-0.2777 0.3961,-0.4165 0.132,-0.1389 0.2641,-0.2777 0.3961,-0.4166 0.1321,-0.1389 0.2641,-0.2777 0.3962,-0.4166 0.132,-0.1388 0.2641,-0.2777 0.3961,-0.4165 0.132,-0.1389 0.2641,-0.2777 0.3961,-0.4166 0.1321,-0.1388 0.2641,-0.2777 0.3962,-0.4165 0.132,-0.1389 0.264,-0.2778 0.3961,-0.4166 0.132,-0.1389 0.2641,-0.2777 0.3961,-0.4166 0.1321,-0.1388 0.2641,-0.2777 0.3961,-0.4165 0.1321,-0.1389 0.2641,-0.2777 0.3962,-0.4166 0.132,-0.1389 0.2641,-0.2777 0.3961,-0.4166 0.132,-0.1388 0.2641,-0.2777 0.3961,-0.4165 0.1321,-0.1389 0.2641,-0.2777 0.3962,-0.4166 0.132,-0.1388 0.264,-0.2777 0.3961,-0.4166 0.132,-0.1388 0.2641,-0.2777 0.3961,-0.4165 0.1321,-0.1389 0.2641,-0.2777 0.3962,-0.4166 0.132,-0.1388 0.264,-0.2777 0.3961,-0.4165 0.132,-0.1389 0.2641,-0.2777 0.3961,-0.4166 0.1321,-0.1389 0.2641,-0.2777 0.3961,-0.4166 0.1321,-0.1388 0.2641,-0.2777 0.3962,-0.4165 0.132,-0.1389 0.2641,-0.2777 0.3961,-0.4166 0.132,-0.1388 0.2641,-0.2777 0.3961,-0.4166 0.1321,-0.1388 0.2641,-0.2777 0.3962,-0.4165 0.132,-0.1389 0.264,-0.2777 0.3961,-0.4166 0.132,-0.1388 0.2641,-0.2777 0.3961,-0.4165 0.1321,-0.1389 0.2641,-0.2777 0.3961,-0.4166 0.1321,-0.1389 0.2641,-0.2777 0.3962,-0.4166 0.132,-0.1388 0.2641,-0.2777 0.3957,-0.4165 0.132,-0.1389 0.264,-0.2777 0.397,-0.4166"
       title="acos(cos(x))/acos(cos(pi))"
       id="path4" />
  </g>
</svg>
